<svg width="17" height="17" viewBox="0 0 17 17" fill="none" xmlns="http://www.w3.org/2000/svg">
<path d="M4.13338 2.80894C4.13338 3.86031 3.22208 4.71261 2.09794 4.71261C0.973797 4.71261 0.0625 3.86031 0.0625 2.80894C0.0625 1.75757 0.973797 0.905273 2.09794 0.905273C3.22208 0.905273 4.13338 1.75757 4.13338 2.80894Z" fill="white"/>
<path d="M0.340851 6.11189H3.82023V16.6553H0.340851V6.11189Z" fill="white"/>
<path d="M9.42204 6.11189H5.94265V16.6553H9.42204C9.42204 16.6553 9.42204 13.3361 9.42204 11.2607C9.42204 10.0151 9.84736 8.764 11.5445 8.764C13.4624 8.764 13.4508 10.3941 13.4419 11.657C13.4302 13.3078 13.4581 14.9924 13.4581 16.6553H16.9375V11.0907C16.908 7.53757 15.9822 5.90037 12.9362 5.90037C11.1273 5.90037 10.006 6.72159 9.42204 7.46458V6.11189Z" fill="white"/>
</svg>
