<svg width="42" height="43" viewBox="0 0 42 43" fill="none" xmlns="http://www.w3.org/2000/svg">
<g clip-path="url(#clip0_22_1292)">
<path d="M37.8002 21.7795C37.8002 31.0579 30.2786 38.5795 21.0002 38.5795C11.7218 38.5795 4.2002 31.0579 4.2002 21.7795C4.2002 12.5011 11.7218 4.97949 21.0002 4.97949C30.2786 4.97949 37.8002 12.5011 37.8002 21.7795Z" fill="#1070BB" fill-opacity="0.22"/>
<path d="M21 42.7803C9.40215 42.7803 0 33.3781 0 21.7803C0 10.1824 9.40215 0.780273 21 0.780273C32.5979 0.780273 42 10.1824 42 21.7803C41.987 33.3727 32.5924 42.7673 21 42.7803ZM21 2.18027C10.1753 2.18027 1.4 10.9556 1.4 21.7803C1.4 32.605 10.1753 41.3803 21 41.3803C31.8247 41.3803 40.6 32.605 40.6 21.7803C40.5877 10.9607 31.8196 2.19258 21 2.18027Z" fill="#0083B7"/>
<path d="M11.2002 16.18C11.1999 14.6265 12.0574 13.1999 13.4294 12.4708C14.801 11.7418 16.4632 11.8293 17.7507 12.6988L18.8007 18.6406L15.4757 20.38C16.6874 23.5754 19.2102 26.0982 22.4057 27.3099L24.1417 23.9822L30.0835 25.0322C30.9516 26.3197 31.0381 27.9815 30.309 29.3525C29.5796 30.7234 28.1533 31.5803 26.6002 31.58C18.0949 31.58 11.2002 24.6853 11.2002 16.18Z" fill="#0083B7"/>
</g>
<defs>
<clipPath id="clip0_22_1292">
<rect width="42" height="42" fill="white" transform="translate(0 0.780273)"/>
</clipPath>
</defs>
</svg>
