<svg width="52" height="52" viewBox="0 0 52 52" fill="none" xmlns="http://www.w3.org/2000/svg">
<circle cx="26" cy="26" r="26" fill="#EDF49B"/>
<path d="M19.975 31.575C20.5417 31.125 20.8 30.9167 20.75 30.95C22.3833 29.6 23.6667 28.4917 24.6 27.625C25.55 26.7583 26.35 25.85 27 24.9C27.65 23.95 27.975 23.025 27.975 22.125C27.975 21.4417 27.8167 20.9083 27.5 20.525C27.1833 20.1417 26.7083 19.95 26.075 19.95C25.4417 19.95 24.9417 20.1917 24.575 20.675C24.225 21.1417 24.05 21.8083 24.05 22.675H19.925C19.9583 21.2583 20.2583 20.075 20.825 19.125C21.4083 18.175 22.1667 17.475 23.1 17.025C24.05 16.575 25.1 16.35 26.25 16.35C28.2333 16.35 29.725 16.8583 30.725 17.875C31.7417 18.8917 32.25 20.2167 32.25 21.85C32.25 23.6333 31.6417 25.2917 30.425 26.825C29.2083 28.3417 27.6583 29.825 25.775 31.275H32.525V34.75H19.975V31.575Z" fill="black"/>
</svg>
