<svg width="52" height="52" viewBox="0 0 52 52" fill="none" xmlns="http://www.w3.org/2000/svg">
<circle cx="26" cy="26" r="26" fill="#EDF49B"/>
<path d="M19.275 21.9C19.3417 20.1167 19.925 18.7417 21.025 17.775C22.125 16.8083 23.6167 16.325 25.5 16.325C26.75 16.325 27.8167 16.5417 28.7 16.975C29.6 17.4083 30.275 18 30.725 18.75C31.1917 19.5 31.425 20.3417 31.425 21.275C31.425 22.375 31.15 23.275 30.6 23.975C30.05 24.6583 29.4083 25.125 28.675 25.375V25.475C29.625 25.7917 30.375 26.3167 30.925 27.05C31.475 27.7833 31.75 28.725 31.75 29.875C31.75 30.9083 31.5083 31.825 31.025 32.625C30.5583 33.4083 29.8667 34.025 28.95 34.475C28.05 34.925 26.975 35.15 25.725 35.15C23.725 35.15 22.125 34.6583 20.925 33.675C19.7417 32.6917 19.1167 31.2083 19.05 29.225H23.2C23.2167 29.9583 23.425 30.5417 23.825 30.975C24.225 31.3917 24.8083 31.6 25.575 31.6C26.225 31.6 26.725 31.4167 27.075 31.05C27.4417 30.6667 27.625 30.1667 27.625 29.55C27.625 28.75 27.3667 28.175 26.85 27.825C26.35 27.4583 25.5417 27.275 24.425 27.275H23.625V23.8H24.425C25.275 23.8 25.9583 23.6583 26.475 23.375C27.0083 23.075 27.275 22.55 27.275 21.8C27.275 21.2 27.1083 20.7333 26.775 20.4C26.4417 20.0667 25.9833 19.9 25.4 19.9C24.7667 19.9 24.2917 20.0917 23.975 20.475C23.675 20.8583 23.5 21.3333 23.45 21.9H19.275Z" fill="black"/>
</svg>
