<svg width="42" height="42" viewBox="0 0 42 42" fill="none" xmlns="http://www.w3.org/2000/svg">
<g clip-path="url(#clip0_22_1298)">
<path d="M21.2129 37.7803C30.3256 37.7803 37.7129 30.393 37.7129 21.2803C37.7129 12.1676 30.3256 4.78027 21.2129 4.78027C12.1002 4.78027 4.71289 12.1676 4.71289 21.2803C4.71289 30.393 12.1002 37.7803 21.2129 37.7803Z" fill="#1070BB" fill-opacity="0.22"/>
<path d="M21.209 22.0956L12.5117 17.7566V26.3778C12.5129 26.8149 12.6871 27.2337 12.9961 27.5428C13.3052 27.8519 13.724 28.026 14.1611 28.0272H28.2647C28.7018 28.026 29.1206 27.8519 29.4297 27.5428C29.7387 27.2337 29.9129 26.8149 29.9141 26.3778V17.8475L21.209 22.0956Z" fill="#0083B7"/>
<path d="M21.2168 20.4656L29.9141 16.2207V16.1833C29.9129 15.7462 29.7387 15.3274 29.4297 15.0183C29.1206 14.7093 28.7018 14.5351 28.2647 14.5339H14.1611C13.7341 14.5348 13.3239 14.7008 13.0165 14.9971C12.7091 15.2935 12.5282 15.6973 12.5117 16.124L21.2168 20.4656Z" fill="#0083B7"/>
<path d="M21.2129 42.2803C9.61504 42.2803 0.212891 32.8781 0.212891 21.2803C0.212891 9.68242 9.61504 0.280273 21.2129 0.280273C32.8107 0.280273 42.2129 9.68242 42.2129 21.2803C42.1999 32.8727 32.8053 42.2673 21.2129 42.2803ZM21.2129 1.68027C10.3882 1.68027 1.61289 10.4556 1.61289 21.2803C1.61289 32.105 10.3882 40.8803 21.2129 40.8803C32.0376 40.8803 40.8129 32.105 40.8129 21.2803C40.8006 10.4607 32.0325 1.69258 21.2129 1.68027Z" fill="#0083B7"/>
</g>
<defs>
<clipPath id="clip0_22_1298">
<rect width="42" height="41" fill="white" transform="translate(0 0.780273)"/>
</clipPath>
</defs>
</svg>
