<svg width="21" height="21" viewBox="0 0 21 21" fill="none" xmlns="http://www.w3.org/2000/svg">
<path d="M17.9375 5.28027C17.9375 6.1087 17.2659 6.78027 16.4375 6.78027C15.6091 6.78027 14.9375 6.1087 14.9375 5.28027C14.9375 4.45185 15.6091 3.78027 16.4375 3.78027C17.2659 3.78027 17.9375 4.45185 17.9375 5.28027Z" fill="white"/>
<path fill-rule="evenodd" clip-rule="evenodd" d="M10.9375 15.7803C13.6989 15.7803 15.9375 13.5417 15.9375 10.7803C15.9375 8.01885 13.6989 5.78027 10.9375 5.78027C8.17608 5.78027 5.9375 8.01885 5.9375 10.7803C5.9375 13.5417 8.17608 15.7803 10.9375 15.7803ZM10.9375 13.7803C12.5944 13.7803 13.9375 12.4371 13.9375 10.7803C13.9375 9.12342 12.5944 7.78027 10.9375 7.78027C9.28065 7.78027 7.9375 9.12342 7.9375 10.7803C7.9375 12.4371 9.28065 13.7803 10.9375 13.7803Z" fill="white"/>
<path fill-rule="evenodd" clip-rule="evenodd" d="M0.9375 10.3803C0.9375 7.01996 0.9375 5.3398 1.59146 4.05633C2.1667 2.92736 3.08458 2.00947 4.21356 1.43423C5.49703 0.780273 7.17719 0.780273 10.5375 0.780273H11.3375C14.6978 0.780273 16.378 0.780273 17.6614 1.43423C18.7904 2.00947 19.7083 2.92736 20.2835 4.05633C20.9375 5.3398 20.9375 7.01996 20.9375 10.3803V11.1803C20.9375 14.5406 20.9375 16.2207 20.2835 17.5042C19.7083 18.6332 18.7904 19.5511 17.6614 20.1263C16.378 20.7803 14.6978 20.7803 11.3375 20.7803H10.5375C7.17719 20.7803 5.49703 20.7803 4.21356 20.1263C3.08458 19.5511 2.1667 18.6332 1.59146 17.5042C0.9375 16.2207 0.9375 14.5406 0.9375 11.1803V10.3803ZM10.5375 2.78027H11.3375C13.0507 2.78027 14.2152 2.78183 15.1154 2.85538C15.9923 2.92702 16.4407 3.05687 16.7535 3.21625C17.5061 3.59974 18.118 4.21166 18.5015 4.96431C18.6609 5.27711 18.7908 5.72552 18.8624 6.60235C18.9359 7.50253 18.9375 8.66711 18.9375 10.3803V11.1803C18.9375 12.8934 18.9359 14.058 18.8624 14.9582C18.7908 15.835 18.6609 16.2834 18.5015 16.5962C18.118 17.3489 17.5061 17.9608 16.7535 18.3443C16.4407 18.5037 15.9923 18.6335 15.1154 18.7052C14.2152 18.7787 13.0507 18.7803 11.3375 18.7803H10.5375C8.82434 18.7803 7.65975 18.7787 6.75958 18.7052C5.88274 18.6335 5.43434 18.5037 5.12154 18.3443C4.36889 17.9608 3.75697 17.3489 3.37347 16.5962C3.21409 16.2834 3.08424 15.835 3.0126 14.9582C2.93906 14.058 2.9375 12.8934 2.9375 11.1803V10.3803C2.9375 8.66711 2.93906 7.50253 3.0126 6.60235C3.08424 5.72552 3.21409 5.27711 3.37347 4.96431C3.75697 4.21166 4.36889 3.59974 5.12154 3.21625C5.43434 3.05687 5.88274 2.92702 6.75958 2.85538C7.65975 2.78183 8.82434 2.78027 10.5375 2.78027Z" fill="white"/>
</svg>
