<svg width="21" height="17" viewBox="0 0 21 17" fill="none" xmlns="http://www.w3.org/2000/svg">
<path d="M7.21517 16.7803C4.90446 16.7803 2.75048 16.1257 0.9375 14.9964C2.47678 15.0934 5.19326 14.861 6.88291 13.2914C4.34113 13.1778 3.19483 11.2793 3.04531 10.4679C3.26128 10.549 4.29129 10.6464 4.87274 10.4192C1.94886 9.70522 1.50031 7.20624 1.59998 6.44356C2.14821 6.81678 3.07854 6.9466 3.44402 6.91415C0.719495 5.01557 1.69966 2.15958 2.18144 1.54295C4.13666 4.18108 7.06693 5.66276 10.6921 5.74517C10.6237 5.45322 10.5876 5.14926 10.5876 4.83707C10.5876 2.59656 12.4471 0.780273 14.7409 0.780273C15.9393 0.780273 17.0192 1.2761 17.7773 2.0692C18.5781 1.88643 19.7834 1.45858 20.3727 1.08859C20.0757 2.12713 19.151 2.99348 18.5917 3.31459C18.5872 3.30362 18.5964 3.32551 18.5917 3.31459C19.083 3.24221 20.4123 2.9934 20.9375 2.6464C20.6778 3.22984 19.6975 4.19991 18.893 4.743C19.0427 11.172 13.9921 16.7803 7.21517 16.7803Z" fill="white"/>
</svg>
